HIERARCHY
ROOT root
{
	OFFSET	0	13.1	24.9
	CHANNELS 6  Xposition Yposition Zposition Xrotation Yrotation Zrotation
	JOINT spine_1
	{
		OFFSET	0	9.99999	0
		CHANNELS 3  Xrotation Yrotation Zrotation
		JOINT spine_2
		{
			OFFSET	0	112	-10
			CHANNELS 3  Xrotation Yrotation Zrotation
			JOINT spine_3
			{
				OFFSET	0	206.5	19.3
				CHANNELS 3  Xrotation Yrotation Zrotation
				JOINT spine_4
				{
					OFFSET	0	110.4	14.6
					CHANNELS 3  Xrotation Yrotation Zrotation
					JOINT neck_1
					{
						OFFSET	0	71.8	-50.3
						CHANNELS 3  Xrotation Yrotation Zrotation
						JOINT neck_2
						{
							OFFSET	0	86.2	-25.8
							CHANNELS 3  Xrotation Yrotation Zrotation
							JOINT head_ee
							{
								OFFSET	0	179.8	-8.7
								CHANNELS 3  Xrotation Yrotation Zrotation
								End Site
								{
									OFFSET	1	0	0
								}
							}
						}
					}
					JOINT left_clavicle
					{
						OFFSET	-43.2	22.4	-70.8
						CHANNELS 3  Xrotation Yrotation Zrotation
						JOINT left_shoulder
						{
							OFFSET	-93.9	-5.79999	48.7
							CHANNELS 3  Xrotation Yrotation Zrotation
							JOINT left_elbow
							{
								OFFSET	-291.4	-30.8	15.2
								CHANNELS 3  Xrotation Yrotation Zrotation
								JOINT left_lowarm_twist
								{
									OFFSET	-110.7	-3.89999	13.6
									CHANNELS 3  Xrotation Yrotation Zrotation
									JOINT left_hand
									{
										OFFSET	-110.7	-3.89999	13.6
										CHANNELS 3  Xrotation Yrotation Zrotation
										JOINT left_ee
										{
											OFFSET	-80.8	-5.10001	12.1
											CHANNELS 3  Xrotation Yrotation Zrotation
											End Site
											{
												OFFSET	1	0	0
											}
										}
									}
								}
							}
						}
					}
					JOINT right_clavicle
					{
						OFFSET	43.2	22.4	-70.8
						CHANNELS 3  Xrotation Yrotation Zrotation
						JOINT right_shoulder
						{
							OFFSET	93.9	-5.79999	48.7
							CHANNELS 3  Xrotation Yrotation Zrotation
							JOINT right_elbow
							{
								OFFSET	291.4	-30.8	15.2
								CHANNELS 3  Xrotation Yrotation Zrotation
								JOINT right_lowarm_twist
								{
									OFFSET	110.7	-3.89999	13.6
									CHANNELS 3  Xrotation Yrotation Zrotation
									JOINT right_hand
									{
										OFFSET	110.7	-3.89999	13.6
										CHANNELS 3  Xrotation Yrotation Zrotation
										JOINT right_ee
										{
											OFFSET	80.8	-5.10001	12.1
											CHANNELS 3  Xrotation Yrotation Zrotation
											End Site
											{
												OFFSET	1	0	0
											}
										}
									}
								}
							}
						}
					}
				}
			}
		}
	}
	JOINT left_hip
	{
		OFFSET	-82.8	-127.5	0.300001
		CHANNELS 3  Xrotation Yrotation Zrotation
		JOINT left_knee
		{
			OFFSET	-28.2	-396.7	2.2
			CHANNELS 3  Xrotation Yrotation Zrotation
			JOINT left_ankle
			{
				OFFSET	-11.7	-411.3	35.4
				CHANNELS 3  Xrotation Yrotation Zrotation
				JOINT left_toes
				{
					OFFSET	0	-60	-88.6
					CHANNELS 3  Xrotation Yrotation Zrotation
					JOINT left_foot_ee
					{
						OFFSET	-22.5	-16.5	-42.2
						CHANNELS 3  Xrotation Yrotation Zrotation
						End Site
						{
							OFFSET	1	0	0
						}
					}
				}
			}
		}
	}
	JOINT right_hip
	{
		OFFSET	82.8	-127.5	0.300001
		CHANNELS 3  Xrotation Yrotation Zrotation
		JOINT right_knee
		{
			OFFSET	28.2	-396.7	2.2
			CHANNELS 3  Xrotation Yrotation Zrotation
			JOINT right_ankle
			{
				OFFSET	11.7	-411.3	35.4
				CHANNELS 3  Xrotation Yrotation Zrotation
				JOINT right_toes
				{
					OFFSET	0	-60	-88.6
					CHANNELS 3  Xrotation Yrotation Zrotation
					JOINT right_foot_ee
					{
						OFFSET	22.5	-16.5	-42.2
						CHANNELS 3  Xrotation Yrotation Zrotation
						End Site
						{
							OFFSET	1	0	0
						}
					}
				}
			}
		}
	}
}
MOTION
Frames: 6
Frame Time: 0.02
1350.2 698.293 -1287.58 10.4148 54.1273 0.691282 -2.3441 -0.420393 -3.1197 -2.33871 -0.221127 -3.1401 -2.32048 0.570048 -3.09587 -2.33385 0.0742112 -3.14699 -0.326125 11.0471 6.55579 -0.124133 14.4106 8.20486 -0.0 0.0 -0.0 7.45276 9.43188 14.2215 -25.3266 -16.2605 66.6062 0.589436 -16.2774 0.084296 19.9509 0.266324 -2.52178 1.90768 14.7081 18.2084 -0.0 0.0 -0.0 9.16499 9.73337 -18.0222 1.29431 28.9007 -49.8539 2.12399 46.4503 -0.911532 -0.261959 0.00930351 -0.0321612 -1.33539 -5.78049 6.33692 0.0 0.0 0.0 9.7342 -34.7178 -18.0147 -5.26136 0.18059 0.786986 -9.95095 29.2742 1.58467 5.22117 -0.0 -0.0 -0.0 0.0 -0.0 -16.575 27.1357 -9.73006 -13.7547 -0.317752 -2.08186 32.3724 -18.5303 4.23863 8.70758 -0.0 -0.0 0.0 0.0 0.0 
1335.05 697.422 -1289.52 9.61067 53.8647 2.22375 -2.24876 -0.477025 -3.32574 -2.24265 -0.264554 -3.34932 -2.22032 0.574472 -3.31032 -2.23561 0.0447665 -3.35944 0.529622 11.2715 6.11882 0.742307 14.9868 7.70648 -0.0 0.0 -0.0 7.52422 9.24013 14.3607 -23.5456 -16.4042 66.4849 0.616042 -16.9707 0.091908 20.6656 0.259471 -2.61282 1.9213 15.7355 18.6277 -0.0 0.0 -0.0 8.94408 9.57739 -17.5486 -1.06038 30.1045 -49.4427 2.13284 46.5691 -0.91795 -0.81387 0.0293861 -0.0997812 -1.13782 -6.09399 4.89705 0.0 0.0 0.0 9.50103 -34.6626 -18.9309 -5.74229 0.193474 0.859668 -13.928 29.5882 2.23219 4.23289 -0.0 -0.0 -0.0 0.0 -0.0 -16.0108 27.0056 -10.2559 -14.8443 -0.321413 -2.249 31.9473 -21.0283 4.23814 8.57827 -0.0 -0.0 0.0 0.0 0.0 
1313.85 699.255 -1299.56 9.91997 53.7642 3.06044 -2.38074 -0.428892 -3.50563 -2.37393 -0.205092 -3.52579 -2.35366 0.684106 -3.46493 -2.37039 0.128656 -3.5294 -1.07923 11.7024 7.01264 -0.858698 15.3875 8.80731 -0.0 0.0 -0.0 6.83568 11.6391 13.0191 -21.5051 -16.7218 66.0027 0.653091 -17.9276 0.103018 21.4608 0.250512 -2.71399 1.76696 15.461 17.5296 -0.0 0.0 -0.0 8.35569 8.70347 -16.306 -2.7903 30.6119 -50.3122 2.12422 46.4534 -0.911698 -2.05359 0.0768686 -0.250956 -0.970521 -7.98222 2.96606 0.0 0.0 0.0 9.27332 -34.5127 -19.5613 -8.22384 0.25023 1.23623 -17.4532 30.5615 2.82341 5.14471 -0.0 -0.0 -0.0 0.0 -0.0 -15.337 24.9687 -11.6705 -17.8268 -0.315176 -2.70651 31.6873 -23.218 4.25633 8.82097 -0.0 -0.0 0.0 0.0 0.0 
1281.96 708.069 -1307.28 10.051 53.563 4.2739 -2.34062 -0.551435 -3.6972 -2.33307 -0.315222 -3.72475 -2.30386 0.623976 -3.68567 -2.32281 0.0344858 -3.73789 1.02824 13.3342 5.89258 1.33588 18.7418 7.59971 -0.0 0.0 -0.0 6.51457 8.90511 12.5468 -21.5418 -16.9063 67.0418 0.687272 -18.8014 0.113787 21.8139 0.246085 -2.75887 1.46451 16.4608 15.9 -0.0 0.0 -0.0 7.9322 7.35392 -15.4361 -4.7015 30.8405 -51.9335 1.98767 44.5514 -0.814285 -2.6768 0.101972 -0.326561 -1.06119 -9.73826 2.77298 0.0 0.0 0.0 8.2688 -31.7176 -19.6788 -10.2484 0.284418 1.54499 -15.8552 31.1912 2.5736 13.2739 -0.0 -0.0 -0.0 0.0 -0.0 -13.3794 24.8255 -13.6325 -21.9541 -0.267306 -3.33785 24.997 -27.0593 3.55218 12.6557 -0.0 -0.0 0.0 0.0 0.0 
1253.01 720.612 -1314.51 11.1192 53.378 4.10293 -2.245 -0.779187 -4.0665 -2.23595 -0.519069 -4.10775 -2.18791 0.513522 -4.10845 -2.21143 -0.141201 -4.13795 1.46581 13.0969 5.78734 1.76921 18.3022 7.43035 -0.0 0.0 -0.0 6.49134 8.58003 12.5133 -18.9359 -16.5953 66.9262 0.734566 -19.9956 0.129496 22.5734 0.235623 -2.85532 1.13786 16.1434 13.7088 -0.0 0.0 -0.0 7.60241 8.18404 -14.7218 -8.31891 30.6922 -51.7107 1.71325 40.3176 -0.628994 -5.21621 0.212733 -0.631709 -0.68026 -8.67952 0.785063 0.0 0.0 0.0 7.24491 -30.8649 -19.0846 -11.8365 0.303587 1.7879 -17.0105 31.8984 2.77776 14.3343 -0.0 -0.0 -0.0 0.0 -0.0 -11.249 24.346 -15.0982 -24.3976 -0.217577 -3.70949 25.0289 -27.5625 3.56793 10.7252 -0.0 -0.0 0.0 0.0 0.0 
1230.62 726.51 -1323.02 10.3894 52.3218 5.62968 -2.15838 -0.944698 -4.3568 -2.14807 -0.665826 -4.40794 -2.08434 0.437326 -4.43639 -2.1117 -0.268092 -4.44979 0.360923 14.4248 9.96755 0.74862 17.4608 12.1425 -0.0 0.0 -0.0 6.43591 3.06934 12.486 -16.7072 -15.3364 66.8127 0.729177 -19.8604 0.127659 23.5914 0.219597 -2.98437 0.498511 18.4258 10.5184 -0.0 0.0 -0.0 7.53207 7.0084 -14.6031 -10.469 31.0379 -52.0086 1.57786 38.0093 -0.543475 -7.97564 0.348322 -0.957457 -0.213691 -8.48513 -2.14433 0.0 0.0 0.0 5.07879 -29.4089 -20.2202 -11.6518 0.301704 1.75963 -15.5803 30.9571 2.5242 17.8204 -0.0 -0.0 -0.0 0.0 -0.0 -9.5013 23.1186 -15.0704 -25.7014 -0.184569 -3.90684 22.8147 -27.2464 3.27779 10.6269 -0.0 -0.0 0.0 0.0 0.0 
